<svg width="25" height="25" viewBox="0 0 25 25" fill="none" xmlns="http://www.w3.org/2000/svg">
<g id="calendar-month">
<path id="Vector" d="M9.57373 10.239V12.239H7.57373V10.239H9.57373ZM13.5737 10.239V12.239H11.5737V10.239H13.5737ZM17.5737 10.239V12.239H15.5737V10.239H17.5737ZM19.5737 3.23904C20.1042 3.23904 20.6129 3.44976 20.9879 3.82483C21.363 4.1999 21.5737 4.70861 21.5737 5.23904V19.239C21.5737 19.7695 21.363 20.2782 20.9879 20.6533C20.6129 21.0283 20.1042 21.239 19.5737 21.239H5.57373C4.46373 21.239 3.57373 20.339 3.57373 19.239V5.23904C3.57373 4.70861 3.78444 4.1999 4.15952 3.82483C4.53459 3.44976 5.0433 3.23904 5.57373 3.23904H6.57373V1.23904H8.57373V3.23904H16.5737V1.23904H18.5737V3.23904H19.5737ZM19.5737 19.239V8.23904H5.57373V19.239H19.5737ZM9.57373 14.239V16.239H7.57373V14.239H9.57373ZM13.5737 14.239V16.239H11.5737V14.239H13.5737ZM17.5737 14.239V16.239H15.5737V14.239H17.5737Z" fill="black"/>
</g>
</svg>
