<svg width="25" height="25" viewBox="0 0 25 25" fill="none" xmlns="http://www.w3.org/2000/svg">
<g id="eye-off-outline">
<path id="Vector" d="M2.57373 5.50904L3.85373 4.23904L20.5737 20.959L19.3037 22.239L16.2237 19.159C15.0737 19.539 13.8537 19.739 12.5737 19.739C7.57373 19.739 3.30373 16.629 1.57373 12.239C2.26373 10.479 3.36373 8.92904 4.76373 7.69904L2.57373 5.50904ZM12.5737 9.23904C13.3694 9.23904 14.1324 9.55511 14.6951 10.1177C15.2577 10.6803 15.5737 11.4434 15.5737 12.239C15.5737 12.589 15.5137 12.929 15.4037 13.239L11.5737 9.40904C11.8837 9.29904 12.2237 9.23904 12.5737 9.23904ZM12.5737 4.73904C17.5737 4.73904 21.8437 7.84904 23.5737 12.239C22.7537 14.319 21.3637 16.119 19.5737 17.429L18.1537 15.999C19.5137 15.059 20.6337 13.779 21.3937 12.239C19.7437 8.87904 16.3337 6.73904 12.5737 6.73904C11.4837 6.73904 10.4137 6.91904 9.41373 7.23904L7.87373 5.70904C9.31373 5.08904 10.9037 4.73904 12.5737 4.73904ZM3.75373 12.239C5.40373 15.599 8.81373 17.739 12.5737 17.739C13.2637 17.739 13.9437 17.669 14.5737 17.529L12.2937 15.239C10.8637 15.089 9.72373 13.949 9.57373 12.519L6.17373 9.10904C5.18373 9.95904 4.35373 11.019 3.75373 12.239Z" fill="black"/>
</g>
</svg>
