<svg width="25" height="25" viewBox="0 0 25 25" fill="none" xmlns="http://www.w3.org/2000/svg">
<g id="eye-outline">
<path id="Vector" d="M12.5737 9.23904C13.3694 9.23904 14.1324 9.55511 14.6951 10.1177C15.2577 10.6803 15.5737 11.4434 15.5737 12.239C15.5737 13.0347 15.2577 13.7978 14.6951 14.3604C14.1324 14.923 13.3694 15.239 12.5737 15.239C11.7781 15.239 11.015 14.923 10.4524 14.3604C9.8898 13.7978 9.57373 13.0347 9.57373 12.239C9.57373 11.4434 9.8898 10.6803 10.4524 10.1177C11.015 9.55511 11.7781 9.23904 12.5737 9.23904V9.23904ZM12.5737 4.73904C17.5737 4.73904 21.8437 7.84904 23.5737 12.239C21.8437 16.629 17.5737 19.739 12.5737 19.739C7.57373 19.739 3.30373 16.629 1.57373 12.239C3.30373 7.84904 7.57373 4.73904 12.5737 4.73904ZM3.75373 12.239C5.40373 15.599 8.81373 17.739 12.5737 17.739C16.3337 17.739 19.7437 15.599 21.3937 12.239C19.7437 8.87904 16.3337 6.73904 12.5737 6.73904C8.81373 6.73904 5.40373 8.87904 3.75373 12.239Z" fill="black"/>
</g>
</svg>
