<svg width="25" height="25" viewBox="0 0 25 25" fill="none" xmlns="http://www.w3.org/2000/svg">
<g id="lock">
<path id="Vector" d="M12.5737 17.239C13.1042 17.239 13.6129 17.0283 13.9879 16.6533C14.363 16.2782 14.5737 15.7695 14.5737 15.239C14.5737 14.129 13.6737 13.239 12.5737 13.239C12.0433 13.239 11.5346 13.4498 11.1595 13.8248C10.7844 14.1999 10.5737 14.7086 10.5737 15.239C10.5737 15.7695 10.7844 16.2782 11.1595 16.6533C11.5346 17.0283 12.0433 17.239 12.5737 17.239ZM18.5737 8.23904C19.1042 8.23904 19.6129 8.44976 19.9879 8.82483C20.363 9.1999 20.5737 9.70861 20.5737 10.239V20.239C20.5737 20.7695 20.363 21.2782 19.9879 21.6533C19.6129 22.0283 19.1042 22.239 18.5737 22.239H6.57373C6.0433 22.239 5.53459 22.0283 5.15952 21.6533C4.78444 21.2782 4.57373 20.7695 4.57373 20.239V10.239C4.57373 9.12904 5.47373 8.23904 6.57373 8.23904H7.57373V6.23904C7.57373 4.91296 8.10051 3.64119 9.0382 2.70351C9.97588 1.76583 11.2476 1.23904 12.5737 1.23904C13.2303 1.23904 13.8805 1.36837 14.4871 1.61965C15.0938 1.87092 15.645 2.23922 16.1093 2.70351C16.5736 3.1678 16.9419 3.719 17.1931 4.32563C17.4444 4.93225 17.5737 5.58243 17.5737 6.23904V8.23904H18.5737ZM12.5737 3.23904C11.7781 3.23904 11.015 3.55511 10.4524 4.11772C9.8898 4.68033 9.57373 5.44339 9.57373 6.23904V8.23904H15.5737V6.23904C15.5737 5.44339 15.2577 4.68033 14.6951 4.11772C14.1324 3.55511 13.3694 3.23904 12.5737 3.23904Z" fill="black"/>
</g>
</svg>
