<svg width="25" height="25" viewBox="0 0 25 25" fill="none" xmlns="http://www.w3.org/2000/svg">
<g id="plus-circle-outline">
<path id="Vector" d="M12.5737 20.239C8.16373 20.239 4.57373 16.649 4.57373 12.239C4.57373 7.82904 8.16373 4.23904 12.5737 4.23904C16.9837 4.23904 20.5737 7.82904 20.5737 12.239C20.5737 16.649 16.9837 20.239 12.5737 20.239ZM12.5737 2.23904C11.2605 2.23904 9.96015 2.4977 8.7469 3.00025C7.53364 3.5028 6.43125 4.23939 5.50266 5.16798C3.6273 7.04334 2.57373 9.58688 2.57373 12.239C2.57373 14.8912 3.6273 17.4347 5.50266 19.3101C6.43125 20.2387 7.53364 20.9753 8.7469 21.4778C9.96015 21.9804 11.2605 22.239 12.5737 22.239C15.2259 22.239 17.7694 21.1855 19.6448 19.3101C21.5202 17.4347 22.5737 14.8912 22.5737 12.239C22.5737 10.9258 22.3151 9.62547 21.8125 8.41221C21.31 7.19895 20.5734 6.09656 19.6448 5.16798C18.7162 4.23939 17.6138 3.5028 16.4006 3.00025C15.1873 2.4977 13.8869 2.23904 12.5737 2.23904V2.23904ZM13.5737 7.23904H11.5737V11.239H7.57373V13.239H11.5737V17.239H13.5737V13.239H17.5737V11.239H13.5737V7.23904Z" fill="rgb(250, 244, 226)"/>
</g>
</svg>
