<svg width="25" height="25" viewBox="0 0 25 25" fill="none" xmlns="http://www.w3.org/2000/svg">
<g id="magnify">
<path id="Vector" d="M10.0737 3.23904C11.7976 3.23904 13.4509 3.92386 14.6699 5.14285C15.8889 6.36184 16.5737 8.01514 16.5737 9.73904C16.5737 11.349 15.9837 12.829 15.0137 13.969L15.2837 14.239H16.0737L21.0737 19.239L19.5737 20.739L14.5737 15.739V14.949L14.3037 14.679C13.1637 15.649 11.6837 16.239 10.0737 16.239C8.34982 16.239 6.69652 15.5542 5.47754 14.3352C4.25855 13.1163 3.57373 11.463 3.57373 9.73904C3.57373 8.01514 4.25855 6.36184 5.47754 5.14285C6.69652 3.92386 8.34982 3.23904 10.0737 3.23904V3.23904ZM10.0737 5.23904C7.57373 5.23904 5.57373 7.23904 5.57373 9.73904C5.57373 12.239 7.57373 14.239 10.0737 14.239C12.5737 14.239 14.5737 12.239 14.5737 9.73904C14.5737 7.23904 12.5737 5.23904 10.0737 5.23904Z" fill="black"/>
</g>
</svg>
